<?xml version="1.0" encoding="UTF-8" standalone="no"?>
<!-- Created with Inkscape (http://www.inkscape.org/) -->

<svg
   xmlns:dc="http://purl.org/dc/elements/1.1/"
   xmlns:cc="http://creativecommons.org/ns#"
   xmlns:rdf="http://www.w3.org/1999/02/22-rdf-syntax-ns#"
   xmlns:svg="http://www.w3.org/2000/svg"
   xmlns="http://www.w3.org/2000/svg"
   xmlns:sodipodi="http://sodipodi.sourceforge.net/DTD/sodipodi-0.dtd"
   xmlns:inkscape="http://www.inkscape.org/namespaces/inkscape"
   version="1.1"
   id="svg3729"
   width="2100"
   height="2100"
   viewBox="0 0 2100 2100"
   sodipodi:docname="fdm.svg"
   inkscape:version="0.92.3 (2405546, 2018-03-11)">
  <metadata
     id="metadata3735">
    <rdf:RDF>
      <cc:Work
         rdf:about="">
        <dc:format>image/svg+xml</dc:format>
        <dc:type
           rdf:resource="http://purl.org/dc/dcmitype/StillImage" />
        <dc:title></dc:title>
      </cc:Work>
    </rdf:RDF>
  </metadata>
  <defs
     id="defs3733" />
  <sodipodi:namedview
     pagecolor="#ffffff"
     bordercolor="#666666"
     borderopacity="1"
     objecttolerance="10"
     gridtolerance="10"
     guidetolerance="10"
     inkscape:pageopacity="0"
     inkscape:pageshadow="2"
     inkscape:window-width="2560"
     inkscape:window-height="1417"
     id="namedview3731"
     showgrid="false"
     inkscape:zoom="0.50204581"
     inkscape:cx="998.76608"
     inkscape:cy="1146.081"
     inkscape:window-x="-8"
     inkscape:window-y="-8"
     inkscape:window-maximized="1"
     inkscape:current-layer="svg3729">
    <inkscape:grid
       type="xygrid"
       id="grid3755" />
  </sodipodi:namedview>
  <circle
     id="path3773"
     cx="1050"
     cy="1050"
     r="911.27142"
     style="fill:#000000" />
  <g
     id="g3757"
     transform="translate(241.94377,176.94346)"
     inkscape:transform-center-x="-1.9918501"
     inkscape:transform-center-y="-139.42951"
     style="fill:#ffffff">
    <path
       style="fill:#ffffff"
       d="m 62.78274,1106.317 c -0.988885,-0.2597 -1.958252,-1.8011 -2.285439,-3.634 -0.908633,-5.0903 -0.08528,-395.42847 0.836032,-396.34972 0.458334,-0.4583 70.787247,-0.83328 156.286477,-0.83328 137.09247,0 155.56513,0.17717 156.40135,1.5 0.5578,0.8824 0.95452,18.66049 0.96353,43.17857 0.0134,36.56976 -0.17731,41.87119 -1.55612,43.25 C 372.02056,794.83659 361.25758,795 269.92857,795 H 168 v 40.5 40.5 h 88.3 c 67.34444,0 88.58479,0.28479 89.5,1.2 1.72564,1.72564 1.72564,85.87436 0,87.6 -0.91521,0.91521 -22.15556,1.2 -89.5,1.2 H 168 v 69.4648 c 0,67.6544 -0.0504,69.4918 -1.93426,70.5 -1.8992,1.0164 -99.486881,1.3492 -103.283,0.3522 z M 398.75,1106.356 C 397.09085,1105.8795 397,1095.4808 397,906.05168 V 706.25 l 3.125,-0.625 c 5.04535,-1.00907 162.80402,-0.68799 180.99339,0.36836 9.14011,0.53082 21.29011,1.68633 27,2.56781 5.70988,0.88147 13.30661,1.99023 16.88161,2.4639 3.575,0.47367 12.35,2.71754 19.5,4.98638 7.15,2.26883 15.7,4.93735 19,5.93003 3.3,0.99268 9.02762,3.21194 12.72804,4.9317 3.70043,1.71975 7.53257,3.12682 8.51587,3.12682 4.6771,0 32.28821,19.36834 46.0275,32.28686 4.25072,3.9968 9.86128,8.96849 12.46791,11.04822 7.54316,6.01839 23.8066,29.46508 26.47252,38.16492 0.33707,1.1 2.72093,6.05 5.29746,11 7.70574,14.80415 14.64079,39.39597 17.06139,60.5 2.2598,19.70202 0.21507,51.42703 -4.51161,70 -3.91211,15.3722 -18.51612,53 -20.57022,53 -0.43043,0 -3.76432,4.4789 -7.40864,9.9531 -3.64432,5.4742 -8.24794,11.6617 -10.23026,13.75 -1.98232,2.0883 -5.90952,6.4453 -8.72709,9.6822 -4.95332,5.6905 -27.65041,24.6147 -29.52213,24.6147 -0.50663,0 -3.1329,1.7483 -5.83616,3.8851 -13.96927,11.0421 -46.61936,25.204 -69.76458,30.2602 -37.66274,8.2277 -34.79573,8.0568 -141,8.4053 -51.7,0.1697 -94.7875,0.082 -95.75,-0.1944 z m 195.92248,-96.1487 c 4.49487,-1.1771 11.43582,-3.2804 15.42433,-4.6739 3.98852,-1.3935 8.59637,-2.5336 10.23966,-2.5336 5.40814,0 18.10083,-9.03383 33.24395,-23.66088 21.75138,-21.01011 33.42233,-53.22671 30.43314,-84.00798 -1.37152,-14.12327 -3.1907,-20.18857 -10.44704,-34.83114 -7.7438,-15.62622 -16.6324,-27.27129 -25.14658,-32.94485 C 645.16397,825.38549 639.575,821.50068 636,818.92225 627.92458,813.09794 617.96911,808.07 606.39561,803.97076 588.14239,797.50563 589.9497,797.70381 545.25,797.26582 L 504,796.86163 V 905 1013.1384 l 41.25,-0.3953 c 38.20055,-0.3661 41.85416,-0.5536 49.42248,-2.5356 z m 217.89895,95.2211 c -1.41808,-1.4181 -1.56994,-20.8625 -1.55612,-199.25003 0.01,-122.73519 0.37453,-198.24725 0.96283,-199.17857 0.80976,-1.28194 6.36814,-1.53695 38.23468,-1.75418 28.66722,-0.19541 37.86512,0.0407 39.78718,1.02127 1.375,0.7015 5.89675,6.35823 10.04833,12.57052 4.15158,6.21229 8.01928,11.60272 8.5949,11.97873 0.57561,0.37601 6.79016,9.23366 13.81011,19.68366 7.01994,10.45 14.40224,20.80228 16.4051,23.00508 3.40965,3.75001 7.40048,9.69578 25.33461,37.74492 3.95618,6.1875 8.40194,12.6 9.87947,14.25 1.47752,1.65 8.23246,11.325 15.01097,21.5 6.7785,10.175 12.88621,18.95 13.57261,19.5 0.6864,0.55 3.5279,4.15 6.3144,8 2.7865,3.85 6.1558,8.40424 7.4873,10.12053 1.3315,1.71629 6.5192,9.25379 11.5282,16.75 5.0091,7.49621 9.3743,13.62947 9.7004,13.62947 0.8657,0 2.394,-2.05097 12.6015,-16.91122 13.1181,-19.0977 15.1719,-21.98022 19.657,-27.58878 2.1991,-2.75 10.3454,-14.225 18.1028,-25.5 7.7574,-11.275 17.8725,-25.9 22.4779,-32.5 4.6055,-6.6 8.3962,-12.3388 8.424,-12.75288 0.096,-1.42876 14.0619,-21.89409 18.4691,-27.06366 2.4305,-2.8509 9.9681,-13.47105 16.7502,-23.60032 6.7821,-10.12928 13.2311,-19.65746 14.3311,-21.17374 1.1,-1.51628 5.0811,-7.04515 8.8468,-12.28638 6.4078,-8.91836 7.1132,-9.56822 11,-10.13295 2.2843,-0.33189 20.0325,-0.46542 39.4405,-0.29675 30.049,0.26116 35.4278,0.52935 36.2346,1.80668 0.5883,0.93127 0.9533,76.6533 0.9628,199.71482 0.015,194.95388 -0.016,198.23188 -1.919,199.24998 -1.2588,0.6737 -19.2658,1.0352 -51.5657,1.0352 -32.2999,0 -50.3069,-0.3615 -51.5657,-1.0352 -1.8918,-1.0124 -1.9343,-3.1472 -1.9343,-97.1224 0,-107.93653 0.7261,-99.39107 -7.4123,-87.23863 -6.5058,9.71457 -17.7355,26.18527 -22.0877,32.39623 -2.2,3.13959 -6.9746,10.18761 -10.6101,15.66227 -3.6356,5.47466 -8.2149,12.05628 -10.1763,14.62582 -1.9614,2.56955 -3.8876,5.6934 -4.2805,6.94191 -0.9301,2.95547 -8.3768,14.0296 -10.1506,15.0952 -0.7555,0.4539 -5.1671,6.5289 -9.8035,13.5 -4.6364,6.9711 -10.1284,15.1498 -12.2044,18.1748 l -3.7746,5.5 -29.2094,0.265 -29.2094,0.2651 -5.2906,-7.6819 c -2.9098,-4.2251 -8.29078,-12.2193 -11.95766,-17.765 -3.66688,-5.5458 -7.99426,-11.4332 -9.61641,-13.0832 -2.77739,-2.8251 -13.11853,-18.23513 -14.42789,-21.5 -1.31869,-3.28811 -48.7478,-72 -49.69877,-72 -0.38903,0 -0.50966,43.27558 -0.26806,96.168 0.42096,92.157 0.3633,96.2235 -1.3824,97.5 -1.45994,1.0675 -11.79735,1.332 -52.05911,1.332 -44.33707,0 -50.42201,-0.1846 -51.80887,-1.5714 z M 1311.0852,821.60269 c -0.8572,-1.03284 -1.1454,-20.31186 -1.1049,-73.91107 0.046,-61.20649 -0.1657,-72.73418 -1.3589,-73.92736 C 1307.1655,672.30832 1255.6167,655 1252.7364,655 c -0.8861,0 -10.2861,-2.925 -20.8889,-6.5 -10.6028,-3.575 -20.1321,-6.5 -21.1762,-6.5 -2.5816,0 -41.6068,-12.8491 -44.4213,-14.62579 -2.4862,-1.56942 -3.0096,-5.4989 -0.9591,-7.20067 0.71,-0.58924 3.2975,-1.52305 5.75,-2.07514 4.0003,-0.90051 44.9452,-14.0392 68.6066,-22.01496 5.0795,-1.71219 11.3055,-3.09787 14,-3.11588 3.3307,-0.0223 12.6899,-2.62513 29.8436,-8.29971 l 24.9911,-8.26727 0.7165,-3.95029 c 0.394,-2.17266 0.7066,-35.14427 0.6945,-73.27024 -0.017,-53.31638 0.2613,-69.66124 1.2049,-70.79826 2.6074,-3.14168 5.33,-0.97922 14.6277,11.61821 5.0742,6.875 10.4494,13.85 11.9449,15.5 6.2416,6.88671 24.7528,30.54558 29.3407,37.5 5.0267,7.61938 6.8956,10.15655 18.1567,24.64878 3.4825,4.48183 9.6678,12.46933 13.745,17.75 4.1849,5.42007 8.1488,9.60122 9.1024,9.60122 0.929,0 8.5277,-2.25 16.886,-5 8.3582,-2.75 15.6977,-5 16.31,-5 1.0243,0 27.3228,-8.25359 83.2885,-26.13956 16.8541,-5.38637 23.0526,-6.95251 26.5,-6.69568 3.965,0.29538 4.5287,0.63249 4.7413,2.83524 0.1629,1.68749 -1.2996,4.50763 -4.5,8.67724 -11.0722,14.42552 -19.4548,25.26729 -24.6046,31.82276 -6.4495,8.20999 -19.173,25.14684 -22.3653,29.77149 -9.4924,13.75176 -14.856,20.78405 -16.198,21.23771 -1.2818,0.43333 -7.8652,8.88067 -19.945,25.59216 -1.4563,2.01476 -0.7311,3.12411 15.5648,23.8073 2.8562,3.62524 10.6443,14.01634 17.3067,23.09134 10.9607,14.92971 18.7665,25.33826 36.4012,48.53867 3.2456,4.26997 7.5366,9.39905 9.5355,11.39796 8.5951,8.59511 11.0453,14.17366 7.5128,17.10532 -1.2949,1.07475 -4.9622,0.18615 -22.25,-5.39134 -11.3846,-3.673 -21.8455,-6.67198 -23.2462,-6.66439 -1.4008,0.008 -7.9047,-1.78622 -14.4532,-3.98622 -6.5485,-2.2 -12.7563,-4 -13.7951,-4 -1.0388,0 -9.4165,-2.475 -18.617,-5.5 -9.2006,-3.025 -17.4496,-5.5 -18.3312,-5.5 -0.8815,0 -8.9125,-2.475 -17.8466,-5.5 -8.934,-3.025 -16.9562,-5.49452 -17.8269,-5.48783 -0.8708,0.007 -4.2832,3.47988 -7.5832,7.71819 -10.9124,14.01515 -14.795,18.73401 -18.1235,22.027 -1.8109,1.79154 -6.3198,7.86654 -10.0198,13.5 -9.4557,14.39688 -13.9437,20.41643 -19.9384,26.74264 -2.8665,3.025 -8.7458,10.55063 -13.0651,16.72363 -4.3193,6.173 -10.5532,15.09246 -13.8532,19.82102 -3.3,4.72856 -6.805,9.46543 -7.789,10.52637 -2.1027,2.26728 -4.9929,2.4992 -6.6258,0.53167 z"
       id="path3771"
       inkscape:connector-curvature="0" />
    <path
       style="fill:#ffffff"
       d="m 62.2,1104.8 c -1.746216,-1.7462 -1.746216,-395.85378 0,-397.6 1.744624,-1.74462 308.85538,-1.74462 310.6,0 1.85345,1.85345 1.71254,84.12974 -0.14673,85.6728 -0.96843,0.80372 -29.97176,1.18924 -103.25,1.37244 L 167.5,794.5 l -0.2783,39 c -0.15307,21.45 -0.0326,40.01007 0.26769,41.2446 l 0.546,2.2446 88.73231,0.2554 L 345.5,877.5 v 43.5 43.5 l -88.44436,0.25547 c -69.23202,0.19997 -88.61604,0.52581 -89.23469,1.5 -0.43468,0.68449 -0.79722,32.13389 -0.80564,69.88753 -0.0137,61.662 -0.17618,68.7048 -1.5971,69.25 -0.86998,0.3339 -24.17998,0.607 -51.8,0.607 -37.725274,0 -50.516738,-0.2985 -51.41821,-1.2 z m 335.83518,-0.7343 C 397.3317,1102.7513 397,1039.2861 397,906 397,772.71395 397.3317,709.24873 398.03518,707.93426 399.0465,706.0446 401.08247,706 486.33529,706 c 88.90474,0 104.0596,0.47516 126.16471,3.95573 6.6,1.03921 13.81705,2.13935 16.03789,2.44477 5.74421,0.78996 39.6485,11.75476 47.85043,15.47505 3.78857,1.71845 7.5762,3.12445 8.41695,3.12445 4.91103,0 30.6493,18.26461 47.19473,33.49071 5.225,4.80837 10.77573,9.70252 12.33495,10.87589 5.61929,4.22872 18.92681,23.75271 24.28766,35.6334 0.8686,1.925 3.77379,8 6.45596,13.5 5.36971,11.011 8.60748,20.58855 12.33914,36.5 3.54506,15.11576 4.5829,25.19873 4.57768,44.47377 -0.008,29.78661 -5.0705,54.0736 -17.0243,81.67368 C 771.68699,994.7301 769,1001.3292 769,1001.8121 c 0,0.4828 -0.90005,1.6925 -2.00012,2.688 -1.10007,0.9956 -4.96195,6.2591 -8.58196,11.6968 -10.61653,15.9473 -34.92644,39.6514 -50.41792,49.1616 -2.475,1.5194 -6.75,4.3212 -9.5,6.2263 -13.35073,9.2485 -43.94074,21.6153 -64.5,26.0757 -36.41496,7.9002 -44.19272,8.3395 -147.66471,8.3395 -85.25282,0 -87.28879,-0.045 -88.30011,-1.9343 z m 188.34549,-91.6706 c 5.56563,-0.8827 14.78908,-3.1327 20.49654,-5 5.70747,-1.8673 11.7327,-3.3951 13.38941,-3.3951 3.74944,0 10.59593,-4.16619 22.23338,-13.52932 11.29916,-9.09096 17.68556,-15.84381 24.37653,-25.77525 12.0805,-17.93115 17.03295,-33.55879 17.80852,-56.19543 0.71936,-20.99635 -1.23884,-30.27503 -10.13008,-48 C 666.73347,844.9076 658.63778,834.09874 650.21291,828 627.97787,811.90412 624.6439,809.99024 608,803.76754 c -18.90705,-7.06883 -18.24214,-6.99081 -63.75,-7.47963 L 503,795.84482 V 904.92241 1014 h 36.63067 c 28.75454,0 38.80648,-0.3451 46.75,-1.6049 z M 813.2,1104.8 c -1.74622,-1.7462 -1.74622,-395.85378 0,-397.6 1.51799,-1.51799 73.93836,-1.73151 76.75088,-0.22629 1.00067,0.53554 5.09901,5.82304 9.10741,11.75 4.00841,5.92696 8.52988,12.22003 10.04772,13.98461 1.51783,1.76458 7.5726,10.46636 13.45504,19.3373 5.88244,8.87094 12.50738,18.22262 14.72209,20.78152 3.89073,4.49539 10.28758,13.97741 25.75254,38.17286 4.04273,6.325 8.56949,12.85 10.05946,14.5 1.48996,1.65 8.21849,11.325 14.95227,21.5 6.73378,10.175 12.98729,19.175 13.89659,20 0.9093,0.825 3.544,4.0875 5.8547,7.25 2.3107,3.1625 5.9413,8.1125 8.0679,11 2.1267,2.8875 7.8367,11.19708 12.6889,18.46573 6.9321,10.38443 9.1049,12.98107 10.1419,12.12042 0.7259,-0.60241 5.4493,-7.22449 10.4965,-14.71572 11.7204,-17.39595 21.6238,-31.19477 23.7951,-33.15464 0.9348,-0.84382 8.0957,-10.96882 15.9131,-22.5 7.8174,-11.53119 17.675,-26.03277 21.9057,-32.22575 4.2307,-6.19298 10.8422,-16.24922 14.6922,-22.34722 3.85,-6.09799 8.9798,-13.40601 11.3996,-16.24004 2.4198,-2.83403 10.2948,-13.8753 17.5,-24.53615 15.1092,-22.35565 15.1428,-22.40446 19.0412,-27.65545 1.6175,-2.17865 4.7663,-6.43618 6.9975,-9.46118 2.2312,-3.025 4.5078,-5.83061 5.0592,-6.23469 0.5514,-0.40408 17.9,-0.74158 38.5525,-0.75 27.8898,-0.0114 37.8587,0.29341 38.75,1.18469 1.7462,1.74622 1.7462,395.8538 0,397.6 -0.9012,0.9011 -13.5818,1.2 -50.9182,1.2 -27.345,0 -50.43,-0.2731 -51.3,-0.607 -1.4273,-0.5477 -1.5818,-10.0687 -1.5818,-97.5 0,-55.5341 -0.3778,-96.893 -0.885,-96.893 -0.4867,0 -1.7242,1.19727 -2.75,2.66059 -6.3238,9.02146 -10.6712,15.30853 -16.865,24.38948 -3.85,5.64465 -8.8,12.82456 -11,15.95535 -2.2,3.13079 -6.6516,9.69785 -9.8924,14.59346 -3.2408,4.89562 -7.127,10.47612 -8.6359,12.40112 -1.5089,1.925 -3.7782,5.525 -5.0429,8 -3.1349,6.13509 -9.6353,15.7304 -11.3157,16.7035 -0.7565,0.4381 -4.9165,6.167 -9.2443,12.7309 -4.3278,6.564 -9.7741,14.7765 -12.1029,18.25 l -4.2341,6.3156 h -28.9674 -28.9675 l -4.7985,-7.1504 c -2.6391,-3.9327 -8.07788,-12.1368 -12.08612,-18.2314 -4.00825,-6.0945 -7.97953,-11.4681 -8.82506,-11.9412 -1.47604,-0.8261 -13.88544,-19.28509 -15.23352,-22.65994 C 967.79416,982.11699 956.25,965.00528 942.5,944.99105 l -25,-36.38952 -0.25495,97.89327 c -0.2,76.7915 -0.52334,98.0637 -1.5,98.6839 -2.16369,1.374 -101.15793,1.0084 -102.54505,-0.3787 z m 498.109,-284.05 c -0.4449,-0.6875 -1.034,-34.325 -1.309,-74.75 l -0.5,-73.5 -16.5,-5.63605 c -9.075,-3.09983 -22.125,-7.29104 -29,-9.31381 -6.875,-2.02276 -21.5,-6.58308 -32.5,-10.13404 -11,-3.55095 -20.603,-6.44724 -21.3399,-6.43619 -1.8749,0.0281 -39.0434,-11.93646 -42.471,-13.67144 -2.1939,-1.11049 -2.7427,-2.00929 -2.5,-4.09448 0.2766,-2.37674 1.0284,-2.86149 6.8109,-4.39143 3.575,-0.94588 22.2216,-6.9179 41.4369,-13.27117 C 1236.7865,597.83117 1249.839,594 1252.7917,594 c 4.1846,0 42.6952,-11.70787 52.9026,-16.08328 L 1310,576.07107 v -72.3444 c 0,-76.67166 -0.013,-76.4536 4.5608,-75.57274 1.0948,0.21084 6.254,6.26884 11.9339,14.01289 5.5029,7.50282 11.2318,14.92212 12.7309,16.48733 4.9839,5.20361 21.7762,26.73759 26.7831,34.34585 2.7146,4.125 6.5123,9.525 8.4392,12 1.927,2.475 6.327,8.17095 9.7778,12.65766 C 1403.162,542.2782 1406.2773,546 1407.9494,546 c 0.9809,0 8.3844,-2.25 16.4523,-5 8.0678,-2.75 15.3236,-5 16.124,-5 0.8004,0 14.622,-4.21063 30.7148,-9.35694 40.58,-12.97716 74.6679,-23.48925 78.3858,-24.17283 2.1561,-0.39643 3.6295,-0.0716 4.748,1.04693 1.9539,1.95394 1.3881,3.24104 -4.7237,10.74533 -2.3461,2.88063 -7.6148,9.69337 -11.7081,15.13942 -4.0934,5.44605 -9.4675,12.50081 -11.9425,15.67724 -15.2406,19.55983 -19.8764,25.7039 -23,30.48308 -6.947,10.62892 -13.5337,19.35753 -15.1977,20.13974 -0.9337,0.43891 -6.1864,6.85012 -11.6727,14.24712 -9.5596,12.88893 -9.9183,13.55534 -8.6134,16 1.24,2.32278 10.6457,14.61127 18.7495,24.49592 1.7789,2.16976 8.1843,10.75958 14.2343,19.0885 25.3577,34.90949 39.4922,53.32127 47.9736,62.49117 6.5434,7.07446 7.8654,9.47344 6.5623,11.90826 -0.6085,1.13688 -1.762,2.06706 -2.5634,2.06706 -0.8014,0 -10.3965,-2.925 -21.3223,-6.5 -10.9258,-3.575 -21.1486,-6.5 -22.7174,-6.5 -1.5688,0 -8.4954,-1.77128 -15.3925,-3.93618 -6.8972,-2.1649 -21.0903,-6.47836 -31.5403,-9.58547 -10.45,-3.1071 -26.65,-8.08815 -36,-11.06899 -9.35,-2.98085 -17.5396,-5.41739 -18.1991,-5.41454 -0.6595,0.003 -2.4595,1.68548 -4,3.73918 -5.9792,7.97116 -19.6826,24.80154 -22.4327,27.55169 -1.5901,1.59001 -5.8942,7.46369 -9.5649,13.05262 -9.2507,14.08527 -13.8143,20.19172 -20.2988,27.16169 -3.0701,3.3 -8.4896,10.20385 -12.0433,15.34188 -14.1903,20.51691 -19.3424,27.75753 -21.2813,29.90812 -2.2377,2.482 -5.119,2.93426 -6.3709,1 z"
       id="path3769"
       inkscape:connector-curvature="0" />
    <path
       style="fill:#ffffff"
       d="M 62.465592,1103.759 C 62.202386,1103.0666 62.102452,1013.625 62.243518,905 L 62.5,707.5 217.75,707.24686 373,706.99371 V 749.99686 793 H 271.58179 c -55.78002,0 -102.13002,0.27314 -103,0.60699 -1.40713,0.53997 -1.58179,5.17748 -1.58179,42 V 877 h 88.3 c 67.34444,0 88.58479,0.28479 89.5,1.2 1.72501,1.72501 1.72501,83.87499 0,85.6 -0.91521,0.91521 -22.15404,1.2 -89.4932,1.2 h -88.2932 l -0.2568,69.75 -0.2568,69.75 -51.77793,0.259 c -40.890657,0.2046 -51.878547,-0.01 -52.256478,-1 z m 336.015538,0.041 c -0.27175,-0.7152 -0.37868,-90.175 -0.23761,-198.8 L 398.5,707.5 H 496 c 88.02863,0 98.56856,0.17012 108.5,1.75121 6.05,0.96317 15.275,2.4162 20.5,3.22895 10.70244,1.66478 36.87378,9.74049 50.61889,15.61953 5.01539,2.14517 9.74754,3.90031 10.51587,3.90031 4.24591,0 29.20494,17.78897 43.16368,30.7639 4.57746,4.25486 10.77042,9.80816 13.76211,12.34068 7.77945,6.58542 21.15701,25.87731 25.23765,36.39542 0.64014,1.65 3.28284,7.11751 5.87267,12.15003 C 784.61406,843.94302 792,877.4081 792,904.43228 c 0,28.44631 -5.38515,53.78084 -17.65702,83.06772 -6.4958,15.5023 -7.45572,17.5 -8.40883,17.5 -0.40034,0 -3.70644,4.4741 -7.34689,9.9425 -6.64625,9.9835 -25.22519,31.2798 -30.04173,34.4357 -1.41762,0.9289 -6.1818,4.5988 -10.58706,8.1553 -4.40525,3.5566 -8.40347,6.4665 -8.88493,6.4665 -0.48145,0 -3.50746,1.9576 -6.72446,4.3503 -8.52701,6.342 -17.15283,10.8656 -32.36302,16.972 -17.51742,7.0327 -26.69724,9.898 -41.98606,13.1051 -29.28143,6.1422 -23.1051,5.8447 -130.26238,6.275 -80.37858,0.3228 -98.85436,0.1547 -99.25649,-0.9029 z m 179.5883,-89.8546 c 11.80637,-1.2115 19.34359,-2.8308 29.85572,-6.414 4.08384,-1.392 8.85431,-2.5309 10.60106,-2.5309 4.23988,0 11.19981,-3.8256 20.94401,-11.51195 24.01337,-18.94215 36.86546,-37.71794 43.25262,-63.18834 2.39437,-9.54812 2.69813,-12.59604 2.62102,-26.29972 -0.10444,-18.56156 -1.69008,-25.62859 -9.36469,-41.7374 -8.94924,-18.78426 -16.90931,-29.04111 -28.59721,-36.84859 -4.46492,-2.98255 -9.86492,-6.81716 -12,-8.52134 C 628.15731,811.12605 606.79272,801.6076 594,798.45597 583.81391,795.94652 567.95465,795 536.09405,795 c -23.3176,0 -32.0112,0.31715 -32.89405,1.2 -1.7415,1.7415 -1.7415,215.8585 0,217.6 1.55139,1.5514 60.06013,1.6647 74.86943,0.1449 z M 813,906 V 707 h 38.37954 38.37954 l 3.47399,4.25 c 1.9107,2.3375 5.61153,7.625 8.22407,11.75 2.61253,4.125 5.54928,8.175 6.52611,9 0.97682,0.825 7.21412,9.67937 13.86066,19.67638 6.64654,9.99702 14.0132,20.36058 16.37035,23.03015 4.12715,4.67414 6.55438,8.27709 24.78704,36.79347 4.57153,7.15 9.53601,14.35 11.03219,16 1.49617,1.65 8.17985,11.1 14.85262,21 6.67277,9.9 14.49069,20.99482 17.37309,24.65516 8.0537,10.22716 14.9319,19.93596 22.9361,32.37466 4.0176,6.24351 7.8347,11.37846 8.4825,11.41101 0.6478,0.0325 5.7091,-6.57833 11.2474,-14.69083 12.4575,-18.24767 16.8288,-24.35872 21.9958,-30.75 6.4912,-8.0294 39.7205,-56.77363 55.079,-80.79579 3.575,-5.59165 8.7877,-12.87509 11.5837,-16.18542 2.796,-3.31034 10.671,-14.29644 17.5,-24.41357 6.829,-10.11713 13.0621,-19.34213 13.8514,-20.5 1.7588,-2.58001 7.3724,-10.32129 12.5852,-17.35522 l 3.8907,-5.25 h 38.6875 c 34.3555,0 38.7555,0.17712 39.2945,1.58179 0.7935,2.06792 0.7935,392.76851 0,394.83641 -0.5426,1.4139 -6.0493,1.5818 -51.893,1.5818 -45.8437,0 -51.3504,-0.1679 -51.893,-1.5818 -0.3339,-0.87 -0.622,-45.0825 -0.6403,-98.25 l -0.033,-96.6682 -2.0558,2.47078 c -1.1307,1.35893 -11.779,16.65893 -23.6629,34 -11.8839,17.34107 -23.7688,34.63729 -26.411,38.43605 -2.6421,3.79876 -4.8038,7.26027 -4.8038,7.69225 0,1.44963 -8.1027,13.72632 -9.3839,14.21802 -0.6966,0.2673 -6.5701,8.4162 -13.0523,18.1087 -6.4822,9.6925 -12.6063,18.0618 -13.6091,18.5984 -2.9083,1.5565 -54.1642,1.2743 -56.331,-0.3101 -0.9672,-0.7072 -2.9657,-3.1062 -4.4411,-5.3309 -1.4754,-2.2248 -6.58227,-9.9276 -11.34854,-17.1174 -4.76646,-7.1898 -9.32346,-13.4534 -10.12686,-13.9191 C 982.28612,1004.5229 969,984.86654 969,983.58767 969,982.8995 951.99024,957.76611 933.40975,931 927.11007,921.925 921.02168,913.03817 919.88,911.25149 c -1.14169,-1.78668 -2.55456,-2.95263 -3.13971,-2.59098 -0.74627,0.46122 -0.89683,29.49577 -0.50429,97.24849 0.30779,53.1251 0.3431,97.1535 0.0785,97.841 -0.37628,0.9776 -11.68776,1.25 -51.89781,1.25 H 813 Z m 499.2,-85.2 c -0.9115,-0.91152 -1.2,-18.83356 -1.2,-74.55103 v -73.35102 l -3.75,-1.57452 c -5.6567,-2.37508 -51.0816,-17.08234 -56.3793,-18.25399 -2.5462,-0.56311 -12.6712,-3.73042 -22.5,-7.03848 -9.8289,-3.30806 -18.7093,-6.01832 -19.7342,-6.0228 -3.2482,-0.0142 -41.3874,-13.00303 -42.6507,-14.52529 -1.3627,-1.64188 -0.6825,-4.33242 1.2415,-4.91087 0.7,-0.21045 5.3227,-1.57702 10.2727,-3.03682 4.95,-1.45981 22.5773,-7.12741 39.1718,-12.59468 20.6489,-6.80306 31.6309,-9.9405 34.7949,-9.9405 5.3181,0 55.4923,-16.10183 58.0055,-18.61505 1.3422,-1.34224 1.5278,-10.31021 1.5278,-73.83393 0,-63.44907 0.186,-72.46053 1.5188,-73.56659 2.0992,-1.74218 3.705,-0.13412 13.9125,13.93203 4.6232,6.37095 10.2888,13.58341 12.5902,16.02771 5.0851,5.40102 14.0108,16.85363 23.7164,30.43073 3.9809,5.56881 10.9559,15.02996 15.5,21.02479 4.5442,5.99483 10.5121,13.88215 13.2621,17.52737 8.6276,11.43615 14.7986,19.07301 15.4105,19.07098 0.3242,-10e-4 7.3395,-2.18228 15.5895,-4.84711 8.25,-2.66484 16.35,-5.15871 18,-5.54193 2.7524,-0.63927 24.8405,-7.5849 81.5,-25.62786 24.0548,-7.66013 31.5978,-9.19278 32.5848,-6.62081 0.7175,1.86987 -2.2874,6.07096 -27.5848,38.56544 -11.2749,14.48262 -22.6686,29.61936 -24.4341,32.46108 -4.3588,7.01604 -13.7684,19.47688 -15.0909,19.98436 -1.5121,0.58025 -21.475,27.05652 -21.475,28.48172 0,0.92077 7.0278,10.58577 16.5,22.69161 3.3,4.21753 10.725,14.07021 16.5,21.89484 5.775,7.82462 14.1,19.09839 18.5,25.05281 10.4952,14.20287 27.3588,35.43188 31.6821,39.88344 6.2826,6.46902 7.5021,11.62437 2.7497,11.62437 -1.172,0 -11.1778,-2.925 -22.235,-6.5 -11.0572,-3.575 -21.3202,-6.5 -22.8066,-6.5 -1.4864,0 -8.0323,-1.79337 -14.5464,-3.98527 -6.5141,-2.1919 -12.7122,-3.9919 -13.7736,-4 -1.0613,-0.008 -9.4575,-2.48973 -18.6581,-5.51473 -9.2005,-3.025 -17.3846,-5.5 -18.1868,-5.5 -0.8021,0 -8.7648,-2.44311 -17.6948,-5.42913 -8.9299,-2.98603 -16.7525,-5.22998 -17.3834,-4.98657 -0.6309,0.24341 -4.2971,4.53988 -8.1471,9.54771 -3.85,5.00784 -10.5222,13.21429 -14.827,18.23657 -4.3049,5.02228 -9.5869,11.83142 -11.7378,15.13142 -8.2599,12.67263 -13.6094,19.95421 -19.726,26.85008 -6.0352,6.80416 -14.705,18.45952 -27.5214,36.99885 -6.1454,8.88943 -9.2754,12.65107 -10.5268,12.65107 -0.4185,0 -1.301,-0.54 -1.961,-1.2 z"
       id="path3767"
       inkscape:connector-curvature="0" />
    <path
       style="fill:#ffffff"
       d="M 62.465623,1103.7591 C 62.2024,1103.0666 62.102452,1013.625 62.243518,905 L 62.5,707.5 h 155 155 v 42.5 42.5 l -102.44391,0.25474 c -80.43196,0.20001 -102.61383,0.52231 -103.23469,1.5 -1.36946,2.15653 -1.0071,81.15956 0.3786,82.54526 0.91521,0.91521 22.15556,1.2 89.5,1.2 H 345 v 43 43 h -88.37756 c -72.78201,0 -88.5744,0.23719 -89.49306,1.3441 -0.79126,0.95341 -1.19018,21.37286 -1.37244,70.25 L 165.5,1104.5 l -51.27789,0.2591 c -40.490558,0.2046 -51.378579,-0.01 -51.756487,-1 z m 336.784377,0.097 c -1.79121,-1.7997 -1.84076,-393.86514 -0.05,-395.6559 0.91498,-0.91498 21.90106,-1.2 88.35478,-1.2 88.65723,0 102.97498,0.45148 124.94522,3.93986 6.6,1.04794 13.81705,2.15522 16.03789,2.46064 5.74421,0.78996 39.6485,11.75476 47.85043,15.47505 3.78857,1.71845 7.62071,3.12445 8.51587,3.12445 4.54129,0 30.5666,18.47509 46.59581,33.07787 4.95,4.5095 10.71979,9.75979 12.82176,11.66731 6.73425,6.11129 17.0675,21.33074 23.25732,34.25482 0.65853,1.375 3.71131,7.675 6.78395,14 5.47666,11.27367 9.48472,23.82771 13.72838,43 3.25162,14.69036 3.79269,48.77093 1.06372,67 -2.56331,17.1225 -7.74624,35.07112 -14.70336,50.91809 C 771.4533,992.74803 769,998.93424 769,999.6652 c 0,0.731 -1.49224,3.0178 -3.31609,5.0819 -1.82384,2.0641 -5.47015,7.0331 -8.10289,11.0422 -5.00669,7.6241 -20.37328,25.2064 -27.27757,31.2107 -7.18106,6.245 -16.44149,13.4309 -21.2637,16.5 -2.59246,1.65 -7.82446,5.0864 -11.62666,7.6364 -16.31472,10.9417 -44.32078,21.6577 -71.41309,27.325 -27.89735,5.8356 -27.61293,5.822 -130.5,6.2528 -75.3344,0.3154 -95.25876,0.1377 -96.25,-0.8583 z M 592,1012.5766 c 4.125,-0.9463 11.4631,-3.0382 16.3069,-4.6486 4.84379,-1.6104 10.16366,-2.928 11.82193,-2.928 8.78136,0 35.17656,-22.00477 46.86403,-39.06893 12.58669,-18.37706 17.80612,-34.03817 18.71915,-56.16754 0.86476,-20.95944 -1.35731,-31.81299 -10.15916,-49.62167 C 666.33279,841.48699 659.0288,832.75417 643.98252,822.39563 629.32477,812.30458 624.5875,809.4645 617.68951,806.63245 590.28495,795.3812 586.613,794.85214 538.5,795.22272 L 502.5,795.5 502.24245,904 c -0.14165,59.675 -0.0298,109.0978 0.24868,109.8283 0.82753,2.1715 79.37583,1.0731 89.50887,-1.2517 z m 221.46566,91.1826 C 813.20241,1103.0666 813.10245,1013.625 813.24352,905 L 813.5,707.5 l 37.69989,-0.26198 37.69988,-0.26197 2.18055,2.26197 c 1.1993,1.24409 5.07412,6.63977 8.61071,11.99041 3.53659,5.35064 6.87281,10.00201 7.41382,10.33637 0.54102,0.33437 6.43488,8.76647 13.09748,18.73801 6.6626,9.97155 14.40518,20.85049 17.20574,24.17544 4.79126,5.6884 7.46865,9.6622 24.94374,37.02175 3.86425,6.05 8.66573,13.025 10.66994,15.5 2.00422,2.475 9.14045,12.6 15.8583,22.5 6.71785,9.9 15.38075,22.05 19.25085,27 3.8701,4.95 11.982,16.35225 18.0265,25.33833 12.8879,19.16004 10.8831,18.9642 22.1292,2.16167 10.217,-15.26488 18.4549,-26.73525 23.7001,-33 2.5327,-3.025 10.8132,-14.725 18.4011,-26 7.5879,-11.275 17.4673,-25.95589 21.9542,-32.62419 4.4869,-6.66831 11.308,-17.01831 15.158,-23 3.85,-5.9817 8.8618,-12.90081 11.1373,-15.37581 2.2756,-2.475 9.3349,-12.375 15.6875,-22 6.3525,-9.625 13.0407,-19.57244 14.8626,-22.10543 1.8219,-2.53299 4.8568,-6.80799 6.7442,-9.5 1.8873,-2.69201 4.9834,-6.81236 6.8801,-9.15633 l 3.4485,-4.26176 38.1199,0.26176 L 1262.5,707.5 V 906 1104.5 h -51 -51 l -0.5,-97.7502 c -0.3292,-64.35059 -0.8417,-97.68753 -1.5,-97.56698 -1.5588,0.28543 -3.8635,3.43595 -21.0809,28.81718 -7.5265,11.09533 -26.4726,38.60465 -31.1651,45.25106 -1.7853,2.52869 -3.6938,5.7755 -4.2411,7.21514 -1.3442,3.53544 -8.8729,14.5338 -9.9489,14.5338 -0.4737,0 -4.4936,5.5125 -8.9329,12.25 -4.4394,6.7375 -10.0165,14.95 -12.3937,18.25 l -4.3221,6 -28.1901,0.2655 -28.1901,0.2656 -3.1256,-4.2656 c -1.7191,-2.346 -7.3856,-10.678 -12.59224,-18.5155 -5.20665,-7.8375 -9.87452,-14.25 -10.37305,-14.25 -0.85211,0 -13.43039,-18.66154 -14.80931,-21.97157 -0.67386,-1.61755 -9.15992,-14.23086 -27.267,-40.52843 -6.0592,-8.8 -12.63318,-18.475 -14.60884,-21.5 -1.97566,-3.025 -5.20467,-7.48372 -7.17558,-9.90826 l -3.58348,-4.40825 -0.5,98.90821 -0.5,98.9083 -50.77786,0.2592 c -40.09045,0.2046 -50.8786,-0.01 -51.25648,-1 z M 1311.607,819.41821 C 1311.2731,818.54823 1311,785.05556 1311,744.99006 V 672.1437 l -5.25,-1.96061 c -9.6588,-3.60707 -52.0495,-17.18306 -53.6599,-17.18508 -0.8746,-10e-4 -10.3362,-2.9261 -21.0259,-6.5 C 1220.3745,642.9241 1210.9908,640 1210.2116,640 c -1.5628,0 -38.37,-11.66432 -41.9616,-13.29774 -3.8633,-1.757 -2.236,-6.70226 2.2054,-6.70226 1.1304,0 19.1235,-5.625 39.9847,-12.5 25.9713,-8.55911 39.3686,-12.50437 42.4946,-12.51386 4.7905,-0.0145 51.3916,-14.65946 55.7643,-17.52456 l 2.301,-1.50769 v -71.89516 c 0,-39.54233 0.2731,-72.60696 0.607,-73.47694 1.4268,-3.71813 4.3543,-1.33747 12.9098,10.49823 4.8027,6.64402 11.5735,15.30652 15.0463,19.25 3.4728,3.94349 7.5793,8.81488 9.1255,10.82532 10.0511,13.06834 17.8975,23.70605 20.1726,27.3489 1.4513,2.3239 5.3388,7.69645 8.6388,11.93901 7.8902,10.14383 20.8233,27.09351 24.2638,31.79922 1.5049,2.05836 3.7522,4.02052 4.9939,4.36035 1.4358,0.39292 7.7353,-1.24275 17.3022,-4.49247 8.2744,-2.81069 15.694,-5.11035 16.4879,-5.11035 0.7939,0 14.6079,-4.21473 30.6978,-9.36606 39.6125,-12.68231 74.5918,-23.46735 78.3451,-24.15588 2.0169,-0.37001 3.4934,-0.0816 4.2501,0.83006 0.921,1.10975 0.1453,2.71261 -3.7718,7.79446 -2.7121,3.51858 -8.1386,10.67242 -12.0589,15.89742 -3.9203,5.225 -8.9418,11.75 -11.1588,14.5 -8.2023,10.17434 -21.531,28.07397 -27.4797,36.90358 -3.3707,5.00303 -8.6781,11.79642 -11.7944,15.09642 -3.1163,3.3 -9.4405,11.14898 -14.0539,17.44217 -7.2735,9.92196 -8.2431,11.71558 -7.2973,13.5 1.2229,2.30734 8.8299,12.51296 17.1868,23.05783 3.0511,3.85 8.5939,11.18737 12.3174,16.30526 3.7234,5.1179 8.8763,12.0929 11.4509,15.5 2.5746,3.40711 7.9746,10.69083 12,16.18606 8.9524,12.22128 22.7489,29.60674 27.7816,35.00868 2.0496,2.2 4.7545,5.50093 6.0108,7.33539 2.0819,3.03992 2.1443,3.47536 0.7042,4.91546 -1.4401,1.44011 -3.3893,0.9896 -22.0032,-5.08538 C 1520.4417,734.99946 1509.9754,732 1508.4159,732 c -1.5595,0 -8.4785,-1.77128 -15.3756,-3.93618 -6.8972,-2.1649 -21.0903,-6.47836 -31.5403,-9.58547 -10.45,-3.1071 -26.65,-8.08815 -36,-11.06899 -9.35,-2.98085 -17.5378,-5.41739 -18.1951,-5.41454 -0.6573,0.003 -6.4167,6.51716 -12.7987,14.47624 -6.3819,7.95909 -12.0352,14.73784 -12.5628,15.0639 -1.2527,0.77424 -11.276,14.33533 -12.9404,17.50788 -2.5259,4.81475 -13.5132,19.54707 -18.6128,24.95716 -2.8515,3.025 -8.8282,10.675 -13.2816,17 -19.3812,27.52625 -21.284,30 -23.0761,30 -1.0002,0 -2.0917,-0.7118 -2.4255,-1.58179 z"
       id="path3765"
       inkscape:connector-curvature="0" />
    <path
       style="fill:#ffffff"
       d="M 63,906 V 708 h 154.39301 c 139.86374,0 154.45013,0.14886 155,1.58179 0.33385,0.86998 0.60699,19.48988 0.60699,41.37755 0,32.1411 -0.25904,40.01076 -1.34673,40.91346 -0.96843,0.80372 -29.97176,1.18924 -103.25,1.37244 L 166.5,793.5 v 42 42 l 89,0.5 89,0.5 v 42.5 42.5 l -89,0.5 -89,0.5 -0.2568,69.75 -0.2568,69.75 H 114.4932 63 Z m 336,-0.004 V 707.90971 l 99.25,0.38744 c 87.63454,0.3421 100.36181,0.58523 108.75,2.07748 5.225,0.92952 12.875,2.12037 17,2.64633 7.92842,1.01092 34.38867,8.96671 47,14.13147 4.125,1.68932 8.85,3.51737 10.5,4.06232 11.16103,3.68621 31.50162,17.50414 47.0823,31.98431 4.35474,4.04714 10.19241,9.22641 12.97261,11.50947 7.73678,6.35336 21.44448,25.95991 25.72234,36.79148 0.65166,1.65 3.262,7.05 5.80075,12 5.45958,10.64497 8.82049,20.47084 12.82675,37.5 5.34355,22.71347 6.46691,43.78632 3.62794,68.05592 -2.42676,20.74577 -6.74305,36.50011 -15.63859,57.08042 -3.24175,7.49999 -5.8941,14.06775 -5.8941,14.59505 0,0.5272 -0.90005,1.7732 -2.00012,2.7687 -1.10007,0.9956 -4.92598,6.2051 -8.50203,11.5767 -8.50448,12.7748 -23.33408,28.6219 -36.8059,39.3313 -5.94443,4.7256 -11.17042,8.5919 -11.61332,8.5919 -0.44289,0 -3.70424,2.1375 -7.24743,4.75 -8.32144,6.1356 -21.80502,12.8896 -39.3312,19.7011 -13.56694,5.2728 -16.81901,6.217 -36,10.4521 -25.43096,5.615 -22.32149,5.474 -128.75,5.8397 L 399,1104.0823 V 905.99599 Z m 189.44353,107.4859 c 4.78803,-0.835 13.55226,-3.085 19.47606,-5 5.9238,-1.915 12.028,-3.4819 13.56488,-3.4819 3.29845,0 10.33976,-4.1609 19.44819,-11.49249 27.7459,-22.3333 41.5807,-46.19807 45.14507,-77.87441 1.29814,-11.53641 0.2891,-26.06242 -2.57942,-37.13309 -2.48659,-9.59664 -13.62558,-31.00061 -20.91999,-40.1985 -5.00836,-6.31528 -8.63537,-9.62543 -15.79008,-14.41061 -5.10853,-3.41666 -10.5928,-7.29221 -12.18725,-8.61233 -7.18008,-5.94468 -33.18984,-16.49908 -46.2888,-18.78335 C 581.69328,795.34097 570.87428,795 540.86901,795 H 502 v 110 110 h 38.86901 c 30.26674,0 40.79566,-0.336 47.57452,-1.5181 z m 225.02212,89.2773 C 813.2024,1102.0666 813.10244,1013.075 813.24351,905 L 813.5,708.5 l 38.07322,-0.26171 38.07322,-0.26172 3.0158,3.76172 c 1.65869,2.06894 5.51793,7.64465 8.5761,12.39047 3.05816,4.74581 6.07551,8.94718 6.70523,9.33637 0.62972,0.38918 6.59096,8.88124 13.24721,18.87124 6.65624,9.99 13.80326,20.0302 15.88226,22.31157 3.79598,4.16548 10.14537,13.57161 24.20109,35.85206 4.16364,6.6 9.11474,13.8 11.00245,16 1.88771,2.2 8.96968,12.31114 15.73772,22.46919 6.76803,10.15806 13.0556,19.15806 13.9724,20 0.9168,0.84195 3.5448,4.11831 5.8401,7.28081 2.2952,3.1625 5.9225,8.1125 8.0606,11 2.1381,2.8875 7.5873,10.875 12.1093,17.75 4.9008,7.4509 8.8746,12.5 9.8378,12.5 0.9569,0 5.7044,-5.96047 11.6407,-14.61486 13.2279,-19.2846 17.5842,-25.37643 22.4436,-31.38514 6.4656,-7.99491 43.7901,-62.68175 54.5812,-79.97104 3.3,-5.28719 8.1828,-12.18165 10.8506,-15.32102 2.6678,-3.13937 10.7678,-14.43593 18,-25.10348 7.2322,-10.66754 13.8244,-20.33927 14.6494,-21.49273 0.825,-1.15347 3.8154,-5.34462 6.6453,-9.31367 2.83,-3.96906 6.049,-8.36521 7.1534,-9.76924 l 2.008,-2.55277 38.3466,0.26198 L 1262.5,708.5 V 906 1103.5 h -51 -51 l -0.2549,-97.75 c -0.2014,-77.20345 -0.5167,-97.74583 -1.5,-97.73018 -0.6848,0.0109 -4.3951,4.60063 -8.2451,10.1994 -22.5024,32.7236 -29.3492,42.71304 -38.1878,55.71643 -5.3967,7.93961 -9.9778,14.91461 -10.1802,15.5 -0.8797,2.54412 -6.7345,11.33925 -9.5546,14.35295 -1.6926,1.8087 -8.2674,11.0337 -14.6107,20.5 l -11.5334,17.2114 -28.1741,0.2655 -28.1741,0.2655 -4.2446,-6.2655 c -2.3346,-3.446 -7.37571,-10.9905 -11.20254,-16.7655 -3.82683,-5.775 -8.79839,-12.5866 -11.04792,-15.1368 -2.24952,-2.5503 -6.51801,-8.62528 -9.48552,-13.50003 -5.61667,-9.22651 -20.62214,-31.75892 -38.92058,-58.44361 -15.11228,-22.03831 -18.22864,-26.20875 -19.00265,-25.4301 -0.37471,0.37695 -0.68129,44.85853 -0.68129,98.84794 V 1103.5 l -50.77786,0.2592 c -40.09044,0.2046 -50.8786,-0.01 -51.25649,-1 z M 1312.6667,820.33333 C 1312.3,819.96667 1312,786.67704 1312,746.35639 v -73.31028 l -2.25,-1.43966 C 1306.9239,669.79817 1256.0918,653 1253.4459,653 c -1.0731,0 -9.15,-2.49538 -17.9486,-5.5453 -8.7985,-3.04991 -18.9223,-6.22761 -22.4973,-7.06154 -8.9045,-2.07714 -43.6293,-13.4016 -45.6703,-14.89404 -2.675,-1.95599 -0.8331,-4.22386 4.3515,-5.35797 2.6503,-0.57976 21.3459,-6.47369 41.5457,-13.09763 C 1237.4313,599.1064 1251.441,595 1254.3156,595 c 5.5496,0 53.1196,-15.43524 55.7853,-18.10087 1.8305,-1.83055 1.8991,-4.51502 1.8991,-74.34011 0,-49.24203 0.3343,-72.64758 1.0438,-73.08609 1.6221,-1.00252 3.1708,0.73119 13.4979,15.11053 5.2995,7.3791 10.0035,13.41654 10.4531,13.41654 0.4497,0 2.4252,2.1375 4.39,4.75 1.9648,2.6125 5.3828,7 7.5957,9.75 7.1436,8.87775 14.9148,19.32271 19.5259,26.24398 2.4755,3.71581 6.6368,9.48083 9.2473,12.81116 2.6104,3.33033 7.6713,9.87974 11.2463,14.55424 11.6255,15.20096 16.1971,20.75229 17.5024,21.25317 0.7051,0.27056 8.868,-1.91371 18.1398,-4.85393 9.2718,-2.94022 30.8078,-9.69836 47.8578,-15.01809 17.05,-5.31972 40.7859,-12.78135 52.7463,-16.58138 21.2364,-6.74712 28.7997,-8.23795 28.7104,-5.65915 -0.024,0.6875 -1.9363,3.75906 -4.25,6.8257 -4.9809,6.60186 -17.3685,22.7146 -23.7067,30.83562 -11.0555,14.16533 -22.6662,29.57814 -24.5,32.52294 -4.8042,7.71485 -13.1333,18.5921 -14.6104,19.07998 -0.8857,0.29256 -4.6315,4.79382 -8.324,10.0028 -3.6925,5.20898 -8.2553,11.31617 -10.1396,13.57153 -1.8843,2.25536 -3.426,4.66251 -3.426,5.34921 0,1.47624 7.3801,11.86413 16.3846,23.06222 3.5381,4.4 11.2711,14.75 17.1845,23 5.9134,8.25 11.7739,16.125 13.0234,17.5 1.2495,1.375 5.7898,7.28487 10.0897,13.13305 11.1886,15.21773 19.6626,26.03296 23.8932,30.49483 8.4074,8.86691 10.5346,13.37212 6.3139,13.37212 -1.1609,0 -10.7234,-2.66605 -21.25,-5.92456 -10.5266,-3.2585 -21.3893,-6.36596 -24.1393,-6.90547 -5.3033,-1.04041 -15.3008,-3.98947 -43.2507,-12.75802 C 1453.7615,715.43538 1445.3469,713 1444.5502,713 c -0.7966,0 -8.8198,-2.475 -17.8292,-5.5 -9.0094,-3.025 -17.5006,-5.5 -18.8694,-5.5 -1.9278,0 -3.9379,1.85176 -8.9201,8.21767 -11.72,14.97492 -15.2321,19.2522 -18.347,22.34416 -1.6965,1.68401 -5.4456,6.63401 -8.3314,11 -10.0375,15.18612 -15.742,22.97145 -20.8374,28.43817 -5.6295,6.03987 -12.4928,15.1912 -22.8742,30.5 -7.5999,11.20724 -13.293,18.5 -14.4418,18.5 -0.4215,0 -1.0664,-0.3 -1.433,-0.66667 z"
       id="path3763"
       inkscape:connector-curvature="0" />
    <path
       style="fill:#ffffff"
       d="M 63.462126,1102.75 C 63.200819,1102.0625 63.102442,1013.075 63.243511,905 L 63.5,708.5 h 154 154 l 0.26097,41.7453 0.26097,41.74531 L 269.26097,792.2453 166.5,792.5 l -0.261,42.43419 c -0.20471,33.28378 0.0109,42.6068 1,43.23468 0.69355,0.44028 40.7485,0.8074 89.011,0.81582 L 344,879 v 42 42 h -87.41821 c -48.08002,0 -88.13002,0.27314 -89,0.60699 -1.42102,0.5453 -1.58179,7.5498 -1.58179,68.91821 0,37.5712 -0.27314,69.023 -0.60699,69.893 -0.54239,1.4135 -5.97342,1.5818 -51.03138,1.5818 -39.419465,0 -50.528089,-0.2728 -50.899504,-1.25 z m 336.021124,0.055 c -0.27293,-0.7177 -0.38081,-89.73 -0.23974,-197.805 L 399.5,708.5 l 87,-0.28575 c 51.64878,-0.16964 92.32033,0.12113 100.09342,0.7156 33.99226,2.59966 61.45935,8.92616 87.90658,20.24754 4.95,2.11896 9.68214,3.8459 10.51587,3.83764 2.45099,-0.0243 13.68617,6.97719 25.1399,15.66657 12.40904,9.41412 35.15066,29.60806 39.47682,35.05434 6.16659,7.76323 14.56033,21.31392 17.50768,28.26406 0.5831,1.375 3.45453,7.45 6.38096,13.5 5.94023,12.28061 7.13828,15.77164 11.32498,33 4.19897,17.27881 5.45809,27.8813 5.46285,46 0.008,30.58847 -5.1457,55.08341 -17.4421,82.89982 -2.67683,6.0554 -4.86696,11.61414 -4.86696,12.35275 0,0.73863 -1.04838,2.33393 -2.32973,3.54513 -1.28135,1.2113 -4.99385,6.2362 -8.25,11.1665 -6.03265,9.1344 -26.777,32.586 -30.66475,34.6666 -1.17886,0.6309 -4.96174,3.538 -8.4064,6.4602 -3.44466,2.9222 -7.68091,6.0463 -9.41387,6.9425 -1.73297,0.8961 -5.78625,3.5694 -9.0073,5.9406 -14.88693,10.9592 -46.59091,23.4087 -73.92795,29.0302 -28.7828,5.9187 -26.56498,5.8127 -130.26026,6.225 -78.1118,0.3106 -95.85172,0.1403 -96.25649,-0.9242 z M 595,1012.7472 c 5.775,-1.4043 12.87916,-3.4969 15.78702,-4.6502 2.90786,-1.1533 6.73644,-2.097 8.50796,-2.097 4.46404,0 11.62232,-4.0419 22.20502,-12.53788 13.03393,-10.46393 19.30013,-16.86019 25.92401,-26.46212 7.78987,-11.29212 12.99249,-22.33254 16.25758,-34.5 2.43997,-9.0926 2.68399,-11.63332 2.6892,-28 0.005,-16.60653 -0.19732,-18.65803 -2.61705,-26.5 -6.79287,-22.01468 -21.00334,-43.88613 -34.25374,-52.72025 -3.85,-2.56682 -8.87147,-6.15133 -11.15882,-7.96558 C 630.02013,810.71419 610.07189,801.47459 595.5,797.47106 585.66246,794.76825 573.0413,794 538.47623,794 c -25.94818,0 -35.38851,0.31228 -36.27623,1.2 -1.78585,1.78585 -1.73667,217.8534 0.05,219.6731 0.98516,1.0034 9.83068,1.1836 41.75,0.8502 39.27391,-0.4101 40.81788,-0.5002 51,-2.9761 z M 814,906 V 708 h 37.37954 37.37954 l 3.48058,4.25 c 1.91432,2.3375 5.57623,7.4907 8.13757,11.45156 2.56135,3.96086 5.11921,7.48722 5.68414,7.83637 0.56493,0.34914 6.46548,8.80844 13.11234,18.79844 6.64686,9.99 14.20426,20.63863 16.79423,23.66363 4.63214,5.41019 9.5837,12.73038 26.04234,38.5 4.56659,7.15 9.52703,14.35 11.02321,16 1.49617,1.65 8.1846,11.1 14.86316,21 6.67857,9.9 13.96125,20.25 16.18375,23 5.6914,7.04233 10.4899,13.78768 22.0528,31 5.5421,8.25 10.5451,15.17192 11.1178,15.38203 1.3116,0.48125 2.7754,-1.36429 13.7863,-17.38203 11.4749,-16.69274 15.8927,-22.82704 20.8856,-29 5.3166,-6.5733 42.3705,-60.98375 55.5771,-81.61024 3.3,-5.15403 8.2723,-12.0752 11.0495,-15.38036 2.7772,-3.30517 11.5342,-15.6844 19.4599,-27.5094 7.9257,-11.825 15.5866,-23.075 17.0243,-25 1.4376,-1.925 4.5479,-6.0875 6.9117,-9.25 l 4.2978,-5.75 H 1224.1216 1262 v 198 198 h -50.5 -50.5 v -97.941 c 0,-73.30308 -0.2922,-98.12158 -1.1617,-98.65893 -1.6263,-1.00508 -4.1643,2.37806 -28.4471,37.91931 -11.717,17.14934 -22.6643,33.01299 -24.3275,35.25256 -1.6631,2.23956 -4.4405,6.73956 -6.1718,10 -4.0305,7.59004 -6.6593,11.42686 -9.5428,13.92806 -1.2681,1.1 -5.5779,6.9969 -9.5774,13.1042 -3.9994,6.1073 -9.2057,13.8768 -11.5695,17.2655 l -4.2978,6.1613 -28.1688,-0.2655 -28.1689,-0.2655 -11.65473,-17.4194 c -6.41011,-9.5806 -12.37038,-17.9426 -13.24506,-18.5822 -1.56264,-1.1426 -13.22529,-18.34384 -14.52647,-21.42505 C 969.4757,981.49925 957.03403,962.77333 949.5,952.0075 945.93662,946.91556 936.40555,932.97891 928.7685,921.69317 922.09552,911.83212 917.45221,906 916.2742,906 915.25051,906 915,925.464 915,1005 v 99 H 864.5 814 Z m 498.467,-87.25 c -0.2586,-0.6875 -0.582,-34.07302 -0.7186,-74.19005 l -0.2484,-72.94006 -6,-2.34177 c -3.3,-1.28798 -16.8,-5.73168 -30,-9.87489 -13.2,-4.14322 -33.0118,-10.42889 -44.0262,-13.96817 C 1220.4594,641.89578 1210.7636,639 1209.9274,639 c -2.9323,0 -41.6779,-12.99445 -42.8089,-14.35722 -1.4852,-1.78951 0.1401,-3.12786 4.8815,-4.01968 1.925,-0.36208 19.8242,-6.0504 39.7759,-12.64071 C 1236.4442,599.83414 1249.4893,596 1252.5441,596 c 4.2242,0 39.2429,-10.68938 53.3329,-16.2797 l 5.623,-2.23099 0.5,-73.48109 c 0.4373,-64.27111 0.688,-73.51392 2,-73.74311 0.9231,-0.16124 5.0399,4.6411 10.7041,12.48644 5.0622,7.01165 11.3045,14.99845 13.8718,17.74845 2.5673,2.75 6.7505,7.74153 9.296,11.09228 14.5531,19.15711 19.0068,25.2125 20.5263,27.90772 0.9302,1.65 4.1771,6.15 7.2154,10 3.0383,3.85 8.238,10.6 11.5549,15 13.6439,18.09922 18.2466,23.5 20.0276,23.5 1.0082,0 8.6585,-2.25 17.0007,-5 8.3421,-2.75 15.6481,-4.99378 16.2354,-4.98617 0.5873,0.008 14.3428,-4.21556 30.5678,-9.38481 73.7389,-23.49307 81.2443,-25.66085 82.3954,-23.79833 0.3032,0.49064 -1.4863,3.54194 -3.9768,6.78069 -2.4904,3.23874 -7.7659,10.11948 -11.7233,15.29053 -3.9574,5.17105 -9.2203,11.99354 -11.6953,15.16109 -2.475,3.16755 -7.3021,9.51169 -10.7269,14.09809 -3.4248,4.5864 -7.8248,10.36391 -9.7778,12.83891 -1.953,2.475 -5.9009,8.09086 -8.7731,12.47969 -2.8722,4.38883 -7.3054,10.01383 -9.8515,12.5 -2.5461,2.48617 -8.0779,9.34318 -12.2929,15.23779 -4.2149,5.89462 -8.0943,10.98368 -8.6207,11.30902 -0.5264,0.32534 -0.9571,1.65101 -0.9571,2.94592 0,2.15332 3.5961,7.36765 17,24.64977 2.475,3.19111 7.875,10.33125 12,15.86699 4.125,5.53574 9.6036,12.8653 12.1747,16.2879 2.571,3.42261 8.6166,11.62292 13.4345,18.22292 4.8179,6.6 10.1393,13.62772 11.8253,15.61715 1.686,1.98944 5.0905,6.21962 7.5655,9.4004 2.475,3.18078 5.8954,7.17806 7.6009,8.88285 1.7055,1.70478 4.1233,4.59677 5.3729,6.42664 4.332,6.34334 1.898,6.20978 -20.3921,-1.11899 C 1520.3604,734.01862 1509.8805,731 1508.2929,731 c -1.5876,0 -8.2444,-1.8 -14.7929,-4 -6.5485,-2.2 -12.6024,-3.99001 -13.4532,-3.97779 -1.5553,0.0223 -22.9642,-6.48205 -54.5772,-16.58149 C 1416.1028,703.44832 1407.8874,701 1407.213,701 c -1.3885,0 -1.7441,0.40029 -13.7697,15.5 -4.8183,6.05 -10.8266,13.27604 -13.3519,16.05787 -2.5253,2.78183 -6.3914,7.85605 -8.5914,11.27604 -7.963,12.37887 -17.8468,25.78071 -22.9849,31.16609 -2.886,3.025 -8.2138,9.775 -11.8394,15 -21.2287,30.59309 -22.8092,32.47012 -24.2087,28.75 z"
       id="path3761"
       inkscape:connector-curvature="0" />
    <path
       style="fill:#ffffff"
       d="M 64,906 V 709 H 217.5 371 v 41 41 l -100.75,0.0136 c -55.4125,0.008 -101.76724,0.28624 -103.01053,0.61939 l -2.26054,0.60573 0.26054,43.13062 L 165.5,878.5 l 89,0.5 89,0.5 v 41.5 41.5 l -89,0.5 -89,0.5 -0.2568,69.75 -0.2568,69.75 H 114.4932 64 Z m 336,-0.054 V 708.89195 l 97.75,0.41978 c 82.64816,0.35493 99.14045,0.6606 106.75,1.97852 4.95,0.85731 13.64504,2.28229 19.3223,3.16664 10.95514,1.70648 37.01336,9.58651 48.6777,14.72018 3.85,1.69445 8.8,3.60238 11,4.23983 6.39794,1.85383 11.35704,4.84223 25.01065,15.0717 11.89517,8.91201 23.20413,18.68461 35.94488,31.06167 7.23795,7.03134 16.78099,21.36182 21.60917,32.44978 1.07772,2.475 3.92343,8.325 6.32379,13 12.60684,24.55334 19.30915,62.24433 16.77439,94.33217 -1.96387,24.86098 -6.45492,43.04937 -16.26817,65.88487 C 769.65262,992.76142 767,999.4204 767,1000.0148 c 0,0.5944 -1.0324,2.0717 -2.29423,3.2829 -1.26182,1.2113 -4.97432,6.2313 -8.25,11.1556 -5.55783,8.355 -27.64733,33.5467 -29.41568,33.5467 -0.43731,0 -4.01976,2.7008 -7.96101,6.0018 -3.94125,3.301 -8.83388,6.8563 -10.8725,7.9006 -2.03862,1.0443 -5.50658,3.334 -7.70658,5.0884 -11.14759,8.8892 -45.11731,23.3786 -64.5,27.5117 -39.85411,8.4982 -39.44499,8.4743 -145.25,8.4868 L 400,1103 V 905.94595 Z m 192,108.2145 c 5.225,-1.1573 12.84132,-3.2419 16.92515,-4.6324 4.08384,-1.3904 8.58384,-2.5284 10,-2.5288 9.84659,0 37.13105,-22.03449 49.53636,-39.99925 7.16518,-10.37627 12.77196,-22.69666 16.24915,-35.70604 2.33805,-8.74744 2.61736,-11.61047 2.61402,-26.79396 -0.003,-14.35083 -0.34344,-18.24447 -2.18364,-24.98591 -4.69779,-17.21008 -21.51902,-45.49502 -30.93025,-52.00929 -2.04093,-1.41269 -7.01479,-4.91669 -11.05301,-7.78667 -12.40942,-8.8194 -19.12142,-12.50411 -32.3328,-17.74986 -19.85381,-7.88322 -21.57543,-8.10475 -67.40269,-8.67301 -36.53412,-0.45303 -40.22558,-0.34911 -41.75,1.17531 C 500.12972,796.01314 500,804.58703 500,905 c 0,100.2482 0.13175,108.9889 1.66596,110.5231 1.51453,1.5145 5.26398,1.624 41.25,1.2038 35.50501,-0.4145 40.56299,-0.6789 49.08404,-2.5664 z M 815,906.00934 V 709 h 36.87839 36.87839 l 4.00987,5.25 c 2.20542,2.8875 5.69279,7.95 7.74971,11.25 2.05691,3.3 4.52768,6.675 5.49059,7.5 0.96291,0.825 6.81382,9.15 13.00202,18.5 6.1882,9.35 13.37004,19.475 15.95964,22.5 4.6316,5.41033 9.58457,12.7328 26.04167,38.5 4.56659,7.15 9.52703,14.35 11.02321,16 1.49617,1.65 8.17985,11.1 14.85262,21 6.67277,9.9 14.49069,21.00225 17.37309,24.67166 8.1914,10.42784 13.7695,18.26137 23.1985,32.57834 4.7995,7.2875 9.2846,13.25 9.967,13.25 1.6199,0 5.5613,-5.00269 14.5753,-18.5 4.0404,-6.05 8.5471,-12.575 10.015,-14.5 1.4678,-1.925 5.3274,-6.98945 8.5769,-11.25434 8.7248,-11.45122 43.4462,-62.31316 57.5031,-84.23385 3.5227,-5.49351 8.7783,-12.80521 11.679,-16.24823 2.9008,-3.44301 10.44,-14.02333 16.754,-23.5118 6.3139,-9.48848 12.2364,-18.37678 13.1611,-19.75178 1.8954,-2.81854 7.0469,-9.94488 12.8312,-17.75 L 1186.411,709 H 1223.7055 1261 v 197 197 h -49.3916 -49.3916 l -0.6634,-2.6434 c -0.3649,-1.4539 -0.5854,-45.5905 -0.4898,-98.0814 0.098,-53.63109 -0.2106,-95.82215 -0.7034,-96.31496 -0.4823,-0.48233 -1.3243,-0.5582 -1.8711,-0.1686 -1.573,1.1208 -8.5265,10.61165 -18.1304,24.74629 -24.0042,35.32843 -31.5292,46.30392 -34.3635,50.12054 -1.6985,2.28715 -4.028,6.11215 -5.1767,8.5 -2.6599,5.52958 -7.7654,13.09053 -9.5785,14.18533 -0.7686,0.464 -5.0745,6.3379 -9.5687,13.053 -4.4942,6.7151 -9.9225,14.7729 -12.0629,17.9062 l -3.8916,5.697 H 1038 1010.2832 l -3.8916,-5.6534 c -2.1404,-3.1094 -7.13064,-10.6469 -11.08946,-16.75 -3.95883,-6.1031 -8.26259,-12.0155 -9.56391,-13.1386 -1.30133,-1.123 -5.08044,-6.29805 -8.39803,-11.49997 -11.18428,-17.53674 -21.58629,-33.41642 -26.50211,-40.45803 -2.68773,-3.85 -7.79334,-11.275 -11.3458,-16.5 -3.55247,-5.225 -7.6836,-11.3 -9.18029,-13.5 -7.2409,-10.64349 -13.61482,-18.56561 -14.65699,-18.21714 -0.86272,0.28847 -1.16171,25.41807 -1.18148,99.30164 l -0.0265,98.9155 -49.72353,0.2593 -49.7235,0.2594 z m 498,-160.48629 v -73.47694 l -2.25,-1.45266 c -2.5822,-1.66712 -52.4714,-18.23008 -57.75,-19.17271 -1.925,-0.34376 -12.0987,-3.50405 -22.6082,-7.02288 -10.5095,-3.51882 -19.9595,-6.3996 -21,-6.40173 -2.6027,-0.005 -40.3913,-12.59563 -41.6838,-13.88811 -0.7233,-0.72327 -0.6085,-1.17412 0.3748,-1.47248 13.3955,-4.06459 45.7099,-14.38033 60.4172,-19.28707 12.1463,-4.0523 20.6388,-6.3406 23.5432,-6.34367 4.7778,-0.005 54.1948,-15.6203 58.6303,-18.52655 L 1313,576.95389 v -73.06028 c 0,-57.99974 0.2577,-72.97595 1.25,-72.65118 0.6875,0.225 5.525,6.22962 10.75,13.34361 5.225,7.11398 10.625,14.06885 12,15.45525 5.6726,5.71966 25.3094,31.19288 30.5,39.56511 1.1,1.77427 5.375,7.60571 9.5,12.95877 4.125,5.35306 9.75,12.7167 12.5,16.36366 10.8137,14.34072 15.7505,20.07117 17.2914,20.07117 0.8849,0 8.6063,-2.21898 17.1587,-4.93106 8.5525,-2.71209 29.4999,-9.28445 46.5499,-14.60526 17.05,-5.3208 40.675,-12.73618 52.5,-16.47862 11.825,-3.74244 23.4532,-7.1165 25.8404,-7.49792 4.0195,-0.64221 4.2652,-0.55647 3.3231,1.15969 -0.5595,1.01924 -3.2034,4.55317 -5.8752,7.85317 -2.6719,3.3 -7.3995,9.375 -10.5058,13.5 -3.1062,4.125 -8.1394,10.65 -11.1847,14.5 -3.0453,3.85 -8.6789,11.29815 -12.5192,16.55144 -3.8403,5.25328 -7.904,10.38553 -9.0304,11.40498 -1.1265,1.01946 -2.0482,2.35509 -2.0482,2.96809 0,1.70689 -12.8254,18.96584 -14.7788,19.88775 -0.9467,0.44674 -3.728,3.59674 -6.1808,7 -2.4527,3.40326 -7.0652,9.68849 -10.25,13.96717 -3.1847,4.27869 -5.7904,8.62723 -5.7904,9.66341 0,1.68686 3.1571,6.1945 16.5,23.5584 12.0523,15.68442 19.4528,25.59564 22.7726,30.49876 2.0482,3.025 4.8942,6.85 6.3244,8.5 1.4302,1.65 6.4068,8.175 11.059,14.5 4.6522,6.325 10.4765,13.975 12.9427,17 2.4663,3.025 6.0827,7.6375 8.0365,10.25 1.9538,2.6125 3.9386,4.75 4.4106,4.75 1.2201,0 7.2717,9.0158 6.5416,9.74591 -0.3329,0.33295 -9.4888,-2.25474 -20.3464,-5.75042 -10.8575,-3.49568 -21.991,-6.67796 -24.741,-7.07174 -4.8701,-0.69735 -10.2072,-2.2476 -46.5,-13.50651 -9.625,-2.98591 -18.0384,-5.4263 -18.6964,-5.42308 -0.658,0.003 -8.6737,-2.49053 -17.8127,-5.54165 -9.6818,-3.23237 -17.4204,-5.29227 -18.5432,-4.93592 -1.0598,0.33638 -3.1691,2.32869 -4.6873,4.42738 -5.8099,8.03115 -15.3164,19.97123 -18.8569,23.68391 -4.2104,4.41522 -13.4454,16.64059 -15.389,20.37212 -2.2543,4.32788 -11.8271,17.05497 -18.2543,24.2692 -5.7661,6.47207 -8.7217,10.48241 -26.486,35.93782 -3.7258,5.33886 -7.3367,9.72636 -8.0242,9.75 -0.989,0.034 -1.25,-15.29615 -1.25,-73.43397 z"
       id="path3759"
       inkscape:connector-curvature="0" />
  </g>
</svg>
