<?xml version="1.0" encoding="UTF-8" standalone="no"?>
<!-- Created with Inkscape (http://www.inkscape.org/) -->

<svg
   xmlns:dc="http://purl.org/dc/elements/1.1/"
   xmlns:cc="http://creativecommons.org/ns#"
   xmlns:rdf="http://www.w3.org/1999/02/22-rdf-syntax-ns#"
   xmlns:svg="http://www.w3.org/2000/svg"
   xmlns="http://www.w3.org/2000/svg"
   xmlns:sodipodi="http://sodipodi.sourceforge.net/DTD/sodipodi-0.dtd"
   xmlns:inkscape="http://www.inkscape.org/namespaces/inkscape"
   width="210mm"
   height="210mm"
   viewBox="0 0 210 210"
   version="1.1"
   id="svg8"
   inkscape:version="0.92.3 (2405546, 2018-03-11)"
   sodipodi:docname="feedback.svg">
  <defs
     id="defs2" />
  <sodipodi:namedview
     id="base"
     pagecolor="#ffffff"
     bordercolor="#666666"
     borderopacity="1.0"
     inkscape:pageopacity="0.0"
     inkscape:pageshadow="2"
     inkscape:zoom="0.98994949"
     inkscape:cx="614.94998"
     inkscape:cy="546.44063"
     inkscape:document-units="mm"
     inkscape:current-layer="layer1"
     showgrid="false"
     inkscape:window-width="2560"
     inkscape:window-height="1417"
     inkscape:window-x="-8"
     inkscape:window-y="-8"
     inkscape:window-maximized="1" />
  <metadata
     id="metadata5">
    <rdf:RDF>
      <cc:Work
         rdf:about="">
        <dc:format>image/svg+xml</dc:format>
        <dc:type
           rdf:resource="http://purl.org/dc/dcmitype/StillImage" />
        <dc:title></dc:title>
      </cc:Work>
    </rdf:RDF>
  </metadata>
  <g
     inkscape:label="Layer 1"
     inkscape:groupmode="layer"
     id="layer1"
     transform="translate(0,-87)">
    <g
       id="g37"
       transform="matrix(1.7228366,0,0,1.7228366,-75.897844,-63.841149)">
      <g
         transform="translate(-164.23874,45.322912)"
         id="g118"
         style="fill:#000000">
        <g
           id="g100"
           transform="matrix(1.1638673,0,0,1.1638673,-60.951393,-43.474962)"
           style="fill:#000000">
          <path
             transform="scale(0.26458333)"
             inkscape:connector-curvature="0"
             id="path85"
             d="m 996.07812,461.5496 v -13.57143 h 10.35718 10.3571 v 2.85715 2.85714 h -6.7857 -6.7857 v 2.85714 2.85714 h 6.1125 6.1125 l -0.2197,3.03572 -0.2196,3.03571 -5.8929,0.20746 -5.8928,0.20746 v 4.61397 4.61397 h -3.57146 -3.57142 z"
             style="fill:#000000;fill-opacity:1;stroke-width:0.71428573" />
          <path
             transform="scale(0.26458333)"
             inkscape:connector-curvature="0"
             id="path87"
             d="m 1018.9353,461.63948 v -13.66131 h 6.656 c 3.858,0 8.1837,0.45366 10.2899,1.07914 8.5235,2.53121 11.9313,12.23878 6.9506,19.79961 -2.8613,4.34346 -6.4936,5.74531 -15.8608,6.12131 l -8.0357,0.32257 z m 14.559,6.37058 c 0.9871,-0.37533 2.3581,-1.54202 3.0465,-2.59266 3.4173,-5.21549 -0.2157,-11.01066 -6.9025,-11.01066 h -3.5602 v 7.14286 7.14286 h 2.8107 c 1.5458,0 3.6183,-0.30708 4.6055,-0.6824 z"
             style="fill:#000000;fill-opacity:1;stroke-width:0.71428573" />
          <path
             transform="scale(0.26458333)"
             inkscape:connector-curvature="0"
             id="path89"
             d="m 1077.0862,462.26389 c 0,-6.875 0.1071,-9.6875 0.238,-6.25 0.131,3.4375 0.131,9.0625 0,12.5 -0.1309,3.4375 -0.238,0.625 -0.238,-6.25 z"
             style="fill:#000000;fill-opacity:1;stroke-width:0.71428573" />
          <path
             transform="scale(0.26458333)"
             inkscape:connector-curvature="0"
             id="path91"
             d="m 1046.7924,461.58874 v -13.61057 h 2.479 c 2.3205,0 2.7855,0.43523 7.2685,6.80337 2.6342,3.74186 5.0419,6.71507 5.3505,6.60715 0.3086,-0.10793 2.595,-3.08909 5.0809,-6.6248 4.1716,-5.93343 4.7239,-6.44565 7.1704,-6.65026 l 2.6507,-0.22169 v 13.65368 13.65368 l -3.3929,-0.2177 -3.3928,-0.21771 -0.3572,-6.23148 -0.3571,-6.23148 -2.7572,4.26719 c -2.2676,3.50949 -3.1058,4.2672 -4.7203,4.2672 -1.5914,0 -2.4894,-0.7777 -4.7428,-4.10715 l -2.7797,-4.10714 -0.3571,6.07143 -0.3572,6.07143 -3.3928,0.21771 -3.3929,0.2177 z"
             style="fill:#000000;fill-opacity:1;stroke-width:0.71428573" />
          <path
             transform="scale(0.26458333)"
             inkscape:connector-curvature="0"
             id="path93"
             d="m 1080.3638,451.02384 v -5.06948 l -5.1785,-1.7485 -5.1786,-1.7485 5.1786,-1.59488 5.1785,-1.59488 v -5.02865 -5.02864 l 2.2176,2.77679 c 1.2196,1.52723 2.6198,3.34477 3.1115,4.03897 0.8517,1.20251 1.1099,1.1945 5.461,-0.16935 2.5119,-0.78735 4.8186,-1.43569 5.1259,-1.44076 0.3074,-0.005 -0.7372,1.70749 -2.3214,3.80569 -1.5842,2.0982 -2.8803,4.06406 -2.8803,4.36859 0,0.30452 1.125,2.08624 2.5,3.95936 1.375,1.87313 2.5,3.57245 2.5,3.77627 0,0.20383 -2.1188,-0.26507 -4.7085,-1.04199 -2.5896,-0.77691 -4.8528,-1.26822 -5.0292,-1.09179 -0.1764,0.17644 -1.5933,2.02639 -3.1487,4.11101 l -2.8279,3.79022 z"
             style="fill:#000000;fill-opacity:1;stroke-width:0.71428573" />
        </g>
        <path
           style="fill:#000000;fill-opacity:1;stroke-width:0.1889881"
           d="m 292.96781,139.30878 c -1.1033,-0.27666 -2.24976,-1.16085 -5.12685,-3.954 -7.07238,-6.86604 -8.59657,-9.03293 -9.39987,-13.36351 -0.20876,-1.12547 -0.52025,-2.51405 -0.69219,-3.08574 -0.47948,-1.59429 -0.94347,-1.54369 -4.18308,0.45627 -1.65247,1.02015 -3.64883,1.82019 -5.76792,2.3115 -1.27411,0.2954 -2.31447,0.35054 -6.61458,0.35054 -5.09733,0 -5.10427,-5.3e-4 -6.61459,-0.52738 -3.74269,-1.30551 -6.92618,-3.36943 -10.05554,-6.51919 -4.48759,-4.51688 -6.6699,-9.90973 -6.6699,-16.482453 0,-1.324509 0.13158,-3.161908 0.29254,-4.084907 1.3894,-7.967398 6.99664,-14.75182 14.97079,-18.113759 2.64499,-1.115139 4.08249,-1.326853 9.02164,-1.328713 l 4.34672,-0.0016 1.79539,0.621668 c 7.65027,2.648963 13.54515,8.198434 15.77973,14.855134 0.83243,2.479768 1.05624,3.877217 1.16882,7.297954 0.0849,2.580726 0.0401,3.743186 -0.20358,5.281876 -0.5496,3.47006 -1.94932,7.03723 -3.61978,9.22496 -0.79144,1.03651 -0.82072,1.60479 -0.11884,2.30666 0.46328,0.46328 0.72946,0.54991 2.03162,0.66117 4.51511,0.38581 7.24532,1.98399 12.7613,7.47008 3.66259,3.64273 5.73139,5.99101 6.14217,6.97192 1.18783,2.83647 -0.3926,7.48694 -3.00345,8.83772 -1.42871,0.73918 -4.79013,1.17754 -6.24055,0.81384 z m 3.00417,-4.88663 c 0.87802,-0.39878 1.59242,-1.20464 1.5897,-1.79322 -0.006,-1.29531 -2.14237,-4.05519 -5.65375,-7.30378 -3.19505,-2.95593 -6.04592,-4.90771 -7.16844,-4.90771 -0.79976,0 -0.97226,0.19734 -0.96759,1.1069 0.0109,2.13445 0.75098,3.49196 3.49029,6.40278 2.7059,2.87531 7.09571,6.85426 7.55651,6.84926 0.21036,-0.002 0.72934,-0.16169 1.15328,-0.35423 z m -28.7801,-17.4805 c 6.35521,-2.1393 11.58595,-7.47635 12.89314,-13.15517 0.42858,-1.86188 0.58646,-6.569899 0.29402,-8.767494 -0.45061,-3.386098 -1.51654,-5.717987 -3.87503,-8.477271 -2.39444,-2.801332 -5.52386,-5.097698 -8.34004,-6.119916 -2.37904,-0.863544 -9.02731,-1.052446 -12.13058,-0.344673 -5.44947,1.242881 -12.01211,8.122116 -12.88583,13.507482 -0.25658,1.581452 -0.2576,8.799662 -0.002,10.378272 0.39316,2.4232 2.22429,5.26294 5.32292,8.25486 3.28359,3.17051 5.46701,4.41677 8.55657,4.88394 2.92377,0.4421 3.03982,0.44973 5.95312,0.391 2.36596,-0.0477 2.94154,-0.12297 4.21317,-0.55103 z"
           id="path102"
           inkscape:connector-curvature="0" />
        <path
           style="fill:#000000;fill-opacity:1;stroke-width:0.11270128"
           d="m 268.48744,85.89381 c -1.38401,-0.911581 -2.47309,-1.407428 -3.43128,-1.562231 -0.935,-0.151057 -1.56494,-0.08725 -3.44218,0.348668 -0.7828,0.181776 -1.53682,0.330502 -1.6756,0.330502 -0.14283,0 -0.44218,-0.189865 -0.68986,-0.437546 -1.05362,-1.053621 -0.22837,-2.168274 2.07826,-2.807049 1.08353,-0.300064 4.11217,-0.260237 5.31084,0.06984 2.9269,0.805975 5.10877,2.871401 4.28129,4.052797 -0.1856,0.264976 -0.9408,0.699775 -1.21544,0.699775 -0.0887,0 -0.63588,-0.31264 -1.21603,-0.694756 z"
           id="path104"
           inkscape:connector-curvature="0" />
      </g>
      <path
         inkscape:connector-curvature="0"
         id="path106"
         d="m 109.61884,201.83881 c -1.50483,-0.0811 -2.20291,-0.19013 -2.64391,-0.4129 -0.74403,-0.37586 -1.35984,-1.34642 -1.20114,-1.89309 0.18315,-0.63087 1.05091,-1.34754 1.85115,-1.52884 0.45792,-0.10374 6.39998,-0.21694 15.78726,-0.30078 14.14553,-0.12632 16.58295,-0.20837 17.71478,-0.59638 0.69073,-0.23679 1.38889,-0.9532 1.96304,-2.01437 l 0.51519,-0.95224 0.0591,-34.43895 c 0.0325,-18.94142 0.002,-41.3741 -0.0681,-49.85038 l -0.1272,-15.411434 -1.6482,-1.213368 -1.64819,-1.213367 -30.31721,0.04015 -30.31721,0.04014 -0.11359,6.110137 c -0.11975,6.438952 -0.24298,7.469612 -1.05891,8.852302 -1.4651,2.4828 -4.22553,3.04272 -15.02783,3.0482 l -4.63519,0.002 -0.007,21.46483 c -0.007,21.13057 -0.14522,28.65069 -0.5481,29.84919 -0.40474,1.20403 -2.38944,1.33494 -3.60525,0.23782 l -0.52053,-0.46972 -0.12134,-3.60011 c -0.0668,-1.98007 -0.12869,-14.0863 -0.13768,-26.90276 l -0.0163,-23.30263 11.13729,-9.668291 11.13731,-9.668298 h 32.94633 32.94632 l 1.94726,1.134382 c 1.07098,0.623907 2.16842,1.310766 2.43875,1.526355 1.17841,0.93978 1.66665,2.990257 1.99279,8.369251 0.52753,8.700301 0.35607,92.579471 -0.19642,96.095781 -0.23585,1.50107 -0.86038,2.61984 -2.11804,3.79424 -1.04631,0.97704 -3.39783,2.4745 -4.25014,2.70649 -0.62672,0.1706 -29.27632,0.31897 -32.10893,0.16629 z m -35.9636,-96.48743 c 0.17729,-0.12735 0.40233,-0.41302 0.50008,-0.63482 0.20815,-0.47229 0.21772,-8.128615 0.0109,-8.779895 -0.13544,-0.42669 -0.33159,-0.272046 -5.89941,4.651055 l -5.75928,5.09243 5.41264,-0.0486 c 4.41302,-0.0396 5.47217,-0.0914 5.73498,-0.28015 z"
         style="fill:#000000;fill-opacity:1;stroke-width:0.17068653" />
      <path
         inkscape:connector-curvature="0"
         id="path108"
         d="m 115.85678,208.81044 c -1.62582,-0.13617 -2.25445,-0.35061 -3.1514,-1.07498 -0.70678,-0.57079 -0.71811,-0.78433 -0.10753,-2.02804 l 0.47646,-0.97048 12.42006,-0.09 c 14.74596,-0.10694 16.86237,-0.25295 19.44479,-1.34153 1.70214,-0.7175 4.13122,-2.87459 5.4421,-4.83274 l 0.49953,-0.74618 0.17941,-5.52267 c 0.0987,-3.03747 0.25742,-24.05543 0.35274,-46.70658 0.0992,-23.55402 0.24773,-41.81085 0.34713,-42.64845 0.20385,-1.71791 0.43434,-2.20317 1.28036,-2.69554 1.1906,-0.692889 2.63093,-0.338203 2.84658,0.70098 0.3028,1.45921 0.42674,22.95364 0.33887,58.76774 l -0.0948,38.64463 -1.39826,2.14146 c -1.21153,1.8555 -1.64338,2.35351 -3.23398,3.72956 -3.36227,2.90873 -7.05352,4.30845 -12.34084,4.67963 -2.65323,0.18627 -21.0604,0.18092 -23.30123,-0.006 z"
         style="fill:#000000;fill-opacity:1;stroke-width:0.17068653" />
    </g>
  </g>
</svg>
